HIERARCHY
ROOT Hips
{
	OFFSET -0.001795 -0.223333 0.028219
	CHANNELS 6 Xposition Yposition Zposition Zrotation Yrotation Xrotation 
	JOINT LeftUpLeg
	{
		OFFSET 0.069520 -0.091406 -0.006815
		CHANNELS 3 Zrotation Yrotation Xrotation
		JOINT LeftLeg
		{
			OFFSET 0.034277 -0.375199 -0.004496
			CHANNELS 3 Zrotation Yrotation Xrotation
			JOINT LeftFoot
			{
				OFFSET -0.013596 -0.397961 -0.043693
				CHANNELS 3 Zrotation Yrotation Xrotation
				JOINT LeftToe
				{
					OFFSET 0.026358 -0.055791 0.119288
					CHANNELS 3 Zrotation Yrotation Xrotation
					End Site
					{
						OFFSET 0.000000 0.000000 0.000000
					}
				}
			}
		}
	}
	JOINT RightUpLeg
	{
		OFFSET -0.067670 -0.090522 -0.004320
		CHANNELS 3 Zrotation Yrotation Xrotation
		JOINT RightLeg
		{
			OFFSET -0.038290 -0.382569 -0.008850
			CHANNELS 3 Zrotation Yrotation Xrotation
			JOINT RightFoot
			{
				OFFSET 0.015774 -0.398415 -0.042312
				CHANNELS 3 Zrotation Yrotation Xrotation
				JOINT RightToe
				{
					OFFSET -0.025372 -0.048144 0.123348
					CHANNELS 3 Zrotation Yrotation Xrotation
					End Site
					{
						OFFSET 0.000000 0.000000 0.000000
					}
				}
			}
		}
	}
	JOINT Spine
	{
		OFFSET -0.002533 0.108963 -0.026696
		CHANNELS 3 Zrotation Yrotation Xrotation
		JOINT Spine1
		{
			OFFSET 0.005487 0.135180 0.001092
			CHANNELS 3 Zrotation Yrotation Xrotation
			JOINT Spine2
			{
				OFFSET 0.001457 0.052922 0.025425
				CHANNELS 3 Zrotation Yrotation Xrotation
				JOINT Neck
				{
					OFFSET -0.002778 0.213870 -0.042857
					CHANNELS 3 Zrotation Yrotation Xrotation
					JOINT Head
					{
						OFFSET 0.005152 0.064970 0.051349
						CHANNELS 3 Zrotation Yrotation Xrotation
						End Site
						{
							OFFSET 0.000000 0.000000 0.000000
						}
					}
				}
				JOINT LeftShoulder
				{
					OFFSET 0.078845 0.121749 -0.034090
					CHANNELS 3 Zrotation Yrotation Xrotation
					JOINT LeftArm
					{
						OFFSET 0.090977 0.030469 -0.008868
						CHANNELS 3 Zrotation Yrotation Xrotation
						JOINT LeftForeArm
						{
							OFFSET 0.259612 -0.012772 -0.027456
							CHANNELS 3 Zrotation Yrotation Xrotation
							JOINT LeftHand
							{
								OFFSET 0.249234 0.008986 -0.001171
								CHANNELS 3 Zrotation Yrotation Xrotation
								End Site
								{
									OFFSET 0.000000 0.000000 0.000000
								}
							}
						}
					}
				}
				JOINT RightShoulder
				{
					OFFSET -0.081759 0.118833 -0.038615
					CHANNELS 3 Zrotation Yrotation Xrotation
					JOINT RightArm
					{
						OFFSET -0.096012 0.032551 -0.009143
						CHANNELS 3 Zrotation Yrotation Xrotation
						JOINT RightForeArm
						{
							OFFSET -0.253742 -0.013329 -0.021401
							CHANNELS 3 Zrotation Yrotation Xrotation
							JOINT RightHand
							{
								OFFSET -0.255298 0.007772 -0.005559
								CHANNELS 3 Zrotation Yrotation Xrotation
								End Site
								{
									OFFSET 0.000000 0.000000 0.000000
								}
							}
						}
					}
				}
			}
		}
	}
}
MOTION
Frames: 16
Frame Time: 0.050000
-0.018672 0.951203 -0.024182 2.918913 -1.330883 12.116164 3.501161 -0.809099 -11.140148 1.023163 0.141573 -5.754346 -1.558979 2.918341 15.209421 0.000000 0.000000 0.000000 -5.217279 0.768594 -8.569098 -2.745777 -0.375251 -10.202044 -3.714102 -13.162090 18.636455 0.000000 0.000000 0.000000 5.766211 -0.881392 6.389298 -3.904555 1.758264 -2.248127 -3.739891 15.292716 5.778509 16.399796 -12.547396 -2.950246 0.000000 0.000000 0.000000 -7.701728 -1.906283 -1.583454 -51.945285 -13.722358 -0.725529 -27.519604 -36.601100 8.476825 0.000000 0.000000 0.000000 3.922500 3.698097 2.172755 58.924334 42.628350 19.398701 -12.102011 32.186828 -0.872892 0.000000 0.000000 0.000000 
-0.018164 0.951150 -0.023822 3.011529 -1.410418 11.822518 3.389309 -0.790740 -10.772167 1.006414 0.143893 -5.790377 -1.454354 3.116771 15.343883 0.000000 0.000000 0.000000 -5.197183 0.756464 -8.405654 -3.119886 -0.351796 -9.910744 -3.935730 -13.510781 18.468499 0.000000 0.000000 0.000000 5.732417 -0.930335 7.054597 -3.784942 1.704849 -2.399742 -3.651726 14.925604 6.081411 16.197223 -12.711150 -2.204010 0.000000 0.000000 0.000000 -7.078909 -1.831227 -1.393735 -51.835944 -13.983960 -0.697129 -28.602285 -37.401731 9.096343 0.000000 0.000000 0.000000 3.901231 3.958320 2.254721 61.751738 42.795745 20.777786 -10.638117 30.993786 -0.563979 0.000000 0.000000 0.000000 
-0.017413 0.950920 -0.023851 3.123127 -1.585767 11.605009 3.296412 -0.793322 -10.786035 0.923869 0.130254 -5.380009 -1.478089 3.053613 15.340368 0.000000 0.000000 0.000000 -5.292434 0.736239 -8.077859 -3.206785 -0.359641 -10.058418 -3.958521 -13.572070 18.464283 0.000000 0.000000 0.000000 5.769992 -0.946427 7.252614 -3.870778 1.752331 -1.886942 -3.519478 14.864407 5.985422 15.984528 -12.705135 -1.784929 0.000000 0.000000 0.000000 -6.114646 -2.184678 -0.993858 -51.924431 -14.421275 -0.598346 -29.949533 -38.222773 9.773211 0.000000 0.000000 0.000000 3.642775 4.285496 2.350075 63.307431 42.222788 21.149037 -9.662224 29.730465 -0.373056 0.000000 0.000000 0.000000 
-0.016525 0.951022 -0.024417 3.256023 -1.460757 11.706292 3.162747 -0.814920 -10.988805 1.135006 0.118337 -5.390672 -1.442455 3.215313 15.601489 0.000000 0.000000 0.000000 -5.416033 0.736763 -8.125699 -3.467122 -0.364835 -10.163534 -4.021303 -13.674891 18.637865 0.000000 0.000000 0.000000 5.697442 -0.966410 7.539690 -3.766677 1.709336 -1.684250 -3.119416 14.542648 5.971045 16.098978 -12.990992 -1.340593 0.000000 0.000000 0.000000 -6.051378 -2.590964 -0.794204 -51.366488 -14.589171 -0.495364 -32.345260 -39.152014 10.919401 0.000000 0.000000 0.000000 3.112763 4.936013 2.537934 63.568409 41.714600 20.922026 -8.301621 28.529935 -0.125231 0.000000 0.000000 0.000000 
-0.015701 0.951053 -0.025275 3.270485 -1.539191 11.856787 3.085911 -0.827577 -11.120076 1.240772 0.114200 -5.436711 -1.384809 3.353777 15.789778 0.000000 0.000000 0.000000 -5.441917 0.750157 -8.327814 -3.630278 -0.371121 -10.272441 -4.050048 -13.803135 19.153685 0.000000 0.000000 0.000000 5.671731 -1.000501 7.920866 -3.756033 1.710511 -1.237994 -2.904008 14.334908 5.799295 16.145138 -13.267677 -0.768375 0.000000 0.000000 0.000000 -5.635572 -2.762339 -0.603941 -50.954736 -15.072493 -0.301162 -36.252534 -40.058643 12.640427 0.000000 0.000000 0.000000 2.688258 5.596517 2.747503 62.569005 41.822485 20.512146 -6.763502 27.553519 0.145602 0.000000 0.000000 0.000000 
-0.015149 0.951035 -0.026091 3.194240 -1.486033 12.036852 3.040195 -0.851076 -11.434991 1.403032 0.097479 -5.282943 -1.541389 3.111345 15.765564 0.000000 0.000000 0.000000 -5.399248 0.766787 -8.586910 -3.687353 -0.366178 -10.198111 -3.880445 -13.495039 18.928959 0.000000 0.000000 0.000000 5.673244 -1.076712 8.721184 -3.366706 1.535006 -1.241743 -2.822350 14.149095 5.657642 16.560822 -13.769084 -0.436036 0.000000 0.000000 0.000000 -5.641534 -3.244735 -0.414898 -50.276508 -15.507700 -0.076707 -39.552758 -41.357891 14.373135 0.000000 0.000000 0.000000 2.068853 6.127214 2.883776 61.277032 41.619220 19.800967 -5.308184 27.056480 0.416103 0.000000 0.000000 0.000000 
-0.014945 0.951175 -0.026772 3.043476 -1.482223 12.659993 3.194452 -0.879301 -11.991980 1.642044 0.095051 -5.511106 -1.726897 2.899447 16.009382 0.000000 0.000000 0.000000 -5.086451 0.826585 -9.413938 -3.913786 -0.358880 -10.102068 -3.723152 -13.290235 19.207963 0.000000 0.000000 0.000000 5.732654 -1.130488 9.081273 -3.179431 1.448885 -1.158637 -2.583259 14.073416 5.785225 16.793067 -14.063843 -0.221555 0.000000 0.000000 0.000000 -5.774940 -3.554579 -0.322780 -49.890163 -16.072469 0.167435 -42.913515 -42.507705 16.200341 0.000000 0.000000 0.000000 1.618603 6.608328 3.026942 60.091505 41.806937 19.381288 -5.193230 26.514645 0.407397 0.000000 0.000000 0.000000 
-0.014997 0.951083 -0.027226 2.814909 -1.259428 13.136742 3.542793 -0.882424 -12.327401 1.630322 0.109887 -5.778285 -1.786508 2.967730 16.411444 0.000000 0.000000 0.000000 -4.812286 0.868091 -9.959659 -4.157197 -0.350709 -10.002919 -3.471855 -12.877843 19.335639 0.000000 0.000000 0.000000 5.702099 -1.182239 9.559037 -2.771272 1.263255 -1.306391 -2.271420 13.647111 6.007604 17.389780 -14.551551 -0.305961 0.000000 0.000000 0.000000 -6.126138 -3.887416 -0.243247 -49.315305 -16.693708 0.456832 -45.110737 -43.925691 17.853738 0.000000 0.000000 0.000000 1.175292 7.119561 3.164380 58.383715 41.770015 18.527364 -4.344274 26.836271 0.583409 0.000000 0.000000 0.000000 
-0.015246 0.950994 -0.027448 2.577837 -1.098606 13.725281 3.920084 -0.888484 -12.769972 1.662820 0.118437 -5.970570 -1.784681 2.992980 16.424823 0.000000 0.000000 0.000000 -4.485507 0.930287 -10.749309 -4.325792 -0.343583 -9.912839 -3.302078 -12.624178 19.567850 0.000000 0.000000 0.000000 5.883104 -1.237205 9.712329 -2.431609 1.110209 -1.204473 -2.019121 13.496628 5.999120 18.025650 -15.044558 -0.440097 0.000000 0.000000 0.000000 -6.540685 -4.233669 -0.191463 -48.932708 -16.760561 0.529635 -47.642419 -45.045619 19.542431 0.000000 0.000000 0.000000 0.668856 7.497511 3.248889 57.110552 41.239142 17.655694 -3.980289 27.445264 0.683631 0.000000 0.000000 0.000000 
-0.015503 0.951039 -0.027476 2.479283 -1.016119 14.313722 4.123833 -0.897363 -13.072937 1.676916 0.131693 -6.235996 -1.627033 3.300538 16.605007 0.000000 0.000000 0.000000 -4.373355 0.974487 -11.308916 -4.256267 -0.352701 -9.999258 -2.996808 -12.138902 19.652398 0.000000 0.000000 0.000000 5.889491 -1.243614 9.618863 -2.146319 0.981776 -1.275029 -1.577865 12.887246 6.292582 18.464852 -15.336369 -0.617711 0.000000 0.000000 0.000000 -6.801842 -4.330389 -0.136324 -49.060705 -16.837011 0.572193 -49.181530 -47.041376 21.491382 0.000000 0.000000 0.000000 0.012725 7.951599 3.316306 56.307627 40.832232 16.979634 -3.532998 27.982335 0.796296 0.000000 0.000000 0.000000 
-0.015776 0.951124 -0.027286 2.396289 -0.910645 14.634907 4.329813 -0.894582 -13.206594 1.660036 0.143808 -6.455591 -1.674241 3.284422 16.742345 0.000000 0.000000 0.000000 -4.434287 1.013925 -11.945162 -4.265150 -0.333479 -9.732943 -2.692786 -11.662314 19.803937 0.000000 0.000000 0.000000 6.162642 -1.300142 9.701382 -2.022024 0.925096 -1.163645 -1.400107 12.386307 6.387812 18.849085 -15.617341 -0.713234 0.000000 0.000000 0.000000 -7.351270 -4.486505 -0.129047 -48.718285 -16.888412 0.636483 -50.554846 -48.265042 22.989762 0.000000 0.000000 0.000000 -0.127522 8.295859 3.417245 55.448638 40.559916 16.370910 -3.459398 28.425425 0.818439 0.000000 0.000000 0.000000 
-0.016009 0.951357 -0.026851 2.258603 -0.920313 14.949710 4.724015 -0.876152 -13.318129 1.174802 0.176010 -6.646128 -1.318122 3.900326 17.011363 0.000000 0.000000 0.000000 -4.461590 1.040224 -12.329688 -4.194949 -0.317128 -9.499698 -2.492558 -11.302372 19.559817 0.000000 0.000000 0.000000 6.292475 -1.313561 9.560403 -1.896936 0.868784 -1.201347 -0.998599 11.847198 6.852260 19.463014 -16.149316 -0.763730 0.000000 0.000000 0.000000 -7.842861 -4.599918 -0.097613 -48.748339 -17.224855 0.772393 -50.909427 -50.518077 24.668279 0.000000 0.000000 0.000000 0.167543 8.277733 3.427108 53.958554 40.460879 15.508364 -2.868338 29.000242 0.982152 0.000000 0.000000 0.000000 
-0.016247 0.951649 -0.026123 2.068734 -1.055664 14.958045 5.049284 -0.839119 -13.031460 1.114032 0.192329 -6.938376 -1.176353 4.180069 17.322002 0.000000 0.000000 0.000000 -4.458918 1.046690 -12.387207 -4.173845 -0.316051 -9.480933 -2.109893 -10.735253 19.677119 0.000000 0.000000 0.000000 6.513217 -1.350706 9.612816 -1.746118 0.800443 -0.803491 -0.971014 11.433525 6.761507 19.870736 -16.617751 -0.491765 0.000000 0.000000 0.000000 -8.169519 -4.605464 -0.094280 -48.973706 -17.605952 0.961198 -50.688863 -52.345933 25.751714 0.000000 0.000000 0.000000 0.076855 8.414007 3.446124 53.124510 40.341773 15.043353 -2.933197 29.491556 0.972174 0.000000 0.000000 0.000000 
-0.016516 0.951803 -0.025124 1.876772 -1.145817 14.902978 5.341101 -0.806332 -12.762876 0.971331 0.205385 -7.089750 -0.675884 4.885949 17.232593 0.000000 0.000000 0.000000 -4.504652 1.039370 -12.279061 -4.050247 -0.311393 -9.395539 -2.068737 -10.622175 19.349614 0.000000 0.000000 0.000000 6.524447 -1.344748 9.555166 -1.397435 0.645658 -0.806156 -0.710735 10.970900 7.270843 20.598523 -17.286506 -0.511087 0.000000 0.000000 0.000000 -8.365267 -4.656773 -0.029134 -49.611460 -18.290207 1.219648 -49.718110 -54.708207 26.772344 0.000000 0.000000 0.000000 0.181615 8.495094 3.463912 52.112138 40.293801 14.462670 -2.560793 30.105907 1.087225 0.000000 0.000000 0.000000 
-0.016813 0.951922 -0.023957 1.713255 -1.328859 14.678240 5.472226 -0.773422 -12.316795 1.012743 0.206729 -7.162657 -0.412908 5.298688 17.412609 0.000000 0.000000 0.000000 -4.421668 1.033475 -12.119344 -4.054737 -0.299755 -9.245946 -1.954463 -10.445937 19.207747 0.000000 0.000000 0.000000 6.576698 -1.348607 9.598438 -1.217233 0.566058 -0.765045 -0.696719 10.485435 7.418604 20.564424 -17.516579 0.061565 0.000000 0.000000 0.000000 -8.423918 -4.513072 -0.019652 -49.974378 -19.151026 1.579832 -47.770505 -56.159294 26.654358 0.000000 0.000000 0.000000 0.407636 8.559391 3.485861 51.993600 40.177432 14.235962 -2.352530 30.264502 1.121481 0.000000 0.000000 0.000000 
-0.017132 0.951956 -0.022840 1.678639 -1.168744 14.604385 5.513006 -0.764512 -12.093573 0.817112 0.215953 -7.185180 -0.057859 5.824195 17.303571 0.000000 0.000000 0.000000 -4.430363 1.026030 -12.059507 -3.859204 -0.283905 -8.990667 -2.106097 -10.565383 18.703535 0.000000 0.000000 0.000000 6.746872 -1.352255 9.388241 -1.213931 0.565156 -0.853479 -0.748986 10.082423 7.931301 21.118987 -17.967772 -0.126439 0.000000 0.000000 0.000000 -8.631282 -4.541334 0.007074 -50.294560 -20.592216 2.156083 -44.221252 -57.230627 25.282443 0.000000 0.000000 0.000000 1.046198 8.316917 3.447381 50.877662 40.486898 13.817599 -2.153254 30.503373 1.185028 0.000000 0.000000 0.000000 
